<?xml version="1.0" standalone="no"?>
<!DOCTYPE svg PUBLIC "-//W3C//DTD SVG 20010904//EN"
 "http://www.w3.org/TR/2001/REC-SVG-20010904/DTD/svg10.dtd">
<svg version="1.0" xmlns="http://www.w3.org/2000/svg"
 width="256.000000pt" height="256.000000pt" viewBox="0 0 256.000000 256.000000"
 preserveAspectRatio="xMidYMid meet">
<metadata>
Created by potrace 1.11, written by Peter Selinger 2001-2013
</metadata>
<g transform="translate(0.000000,256.000000) scale(0.100000,-0.100000)"
fill="#000000" stroke="none">
<path d="M1200 2519 c-187 -13 -355 -62 -519 -151 -319 -173 -552 -482 -629
-836 -26 -121 -30 -352 -7 -481 62 -359 278 -672 595 -864 112 -68 281 -131
405 -153 11 -2 34 -6 50 -9 58 -13 279 -12 364 2 188 29 377 103 531 207 109
74 266 233 338 344 98 151 176 355 197 514 11 89 5 326 -10 398 -9 43 -15 69
-20 92 -21 96 -92 256 -161 365 -206 324 -563 538 -945 569 -46 3 -86 7 -89 8
-3 1 -48 -1 -100 -5z m134 -404 c3 -11 6 -46 6 -78 0 -38 4 -59 13 -61 6 -2
33 -8 60 -15 101 -24 180 -78 230 -158 29 -47 37 -72 44 -145 5 -52 3 -57 -21
-73 -24 -16 -28 -16 -50 -2 -18 12 -26 29 -31 69 -13 93 -50 146 -131 187 -54
26 -94 34 -175 34 -176 -1 -298 -98 -299 -238 0 -125 45 -179 216 -264 327
-161 425 -225 464 -302 38 -73 44 -198 16 -278 -42 -116 -167 -210 -297 -225
l-34 -3 -5 -75 c-5 -81 -19 -108 -56 -108 -36 0 -53 35 -51 108 2 68 -1 74
-44 79 -87 9 -195 69 -246 137 -61 79 -87 202 -52 237 37 37 89 11 89 -44 0
-92 65 -177 161 -212 111 -40 284 -20 365 42 61 46 78 87 79 184 0 141 -16
156 -353 324 -306 154 -356 209 -355 397 0 66 4 86 32 143 50 101 159 176 279
192 20 3 39 7 40 8 2 2 4 30 4 62 0 32 4 70 10 85 17 44 80 40 92 -7z"/>
</g>
</svg>
